<svg width="25" height="25" xmlns="http://www.w3.org/2000/svg" xmlns:xlink="http://www.w3.org/1999/xlink" overflow="hidden"><defs><clipPath id="clip0"><rect x="592" y="312" width="96" height="96"/></clipPath></defs><g clip-path="url(#clip0)" transform="translate(-592 -312)"><path d="M683.612 351.7 640.006 336.1 596.4 351.7 605 354.719 605 372.1C605 372.652 605.448 373.1 606 373.1 606.552 373.1 607 372.652 607 372.1L607 355.42 614.038 357.89 614.038 372.29C614.038 378.15 625.93 383.1 640.006 383.1 654.082 383.1 665.975 378.15 665.975 372.292L665.975 357.89ZM640.006 338.225 677.6 351.674C677.615 351.679 677.615 351.687 677.6 351.692L640.006 364.882 602.416 351.692C602.401 351.687 602.401 351.679 602.416 351.674ZM663.975 372.292C663.975 376.365 653.505 381.1 640.006 381.1 626.507 381.1 616.038 376.365 616.038 372.292L616.038 358.592 640.006 367 663.975 358.59Z" stroke="#1D0893"/></g></svg>