<svg width="96" height="96" xmlns="http://www.w3.org/2000/svg" xmlns:xlink="http://www.w3.org/1999/xlink" overflow="hidden"><defs><clipPath id="clip0"><rect x="755" y="283" width="96" height="96"/></clipPath></defs><g clip-path="url(#clip0)" transform="translate(-755 -283)"><path d="M828 365 778 365 778 303 789 303 789 309 817 309 817 303 828 303ZM803 295C804.657 295 806 296.343 806 298 806 299.657 804.657 301 803 301 801.343 301 800 299.657 800 298 799.973 296.37 801.272 295.027 802.901 295 802.934 294.999 802.967 294.999 803 295ZM830 297 813 297 813 295C813 292.791 811.209 291 809 291L797 291C794.791 291 793 292.791 793 295L793 297 776 297C773.791 297 772 298.791 772 301L772 367C772 369.209 773.791 371 776 371L830 371C832.209 371 834 369.209 834 367L834 301C834 298.791 832.209 297 830 297Z" fill="#1D0893"/><path d="M796.061 340.061 793.939 337.939 791 340.879 788.061 337.939 785.939 340.061 788.879 343 785.939 345.939 788.061 348.061 791 345.121 793.939 348.061 796.061 345.939 793.121 343 796.061 340.061Z" fill="#1D0893"/><path d="M793.939 349.939 791 352.879 788.061 349.939 785.939 352.061 788.879 355 785.939 357.939 788.061 360.061 791 357.121 793.939 360.061 796.061 357.939 793.121 355 796.061 352.061 793.939 349.939Z" fill="#1D0893"/><path d="M805 341 822 341 822 345 805 345Z" fill="#1D0893"/><path d="M805 353 822 353 822 357 805 357Z" fill="#1D0893"/><path d="M805 317 822 317 822 321 805 321Z" fill="#1D0893"/><path d="M805 329 822 329 822 333 805 333Z" fill="#1D0893"/><path d="M784.707 318.8 786.8 316.707 789.4 319.307 796 312.707 798.093 314.8 789.4 323.493 784.707 318.8Z" fill="#1D0893"/><path d="M784.707 330.8 786.8 328.707 789.4 331.307 796 324.707 798.093 326.8 789.4 335.493 784.707 330.8Z" fill="#1D0893"/></g></svg>