<svg width="96" height="96" xmlns="http://www.w3.org/2000/svg" xmlns:xlink="http://www.w3.org/1999/xlink" overflow="hidden"><defs><clipPath id="clip0"><rect x="527" y="283" width="96" height="96"/></clipPath></defs><g clip-path="url(#clip0)" transform="translate(-527 -283)"><path d="M569.772 303.951 569.772 303.951C564.401 303.982 560.036 308.293 559.937 313.663L559.937 314.032C559.98 315.21 560.216 316.374 560.637 317.475 561.027 318.466 561.59 319.38 562.299 320.175 563.426 321.534 564.391 323.019 565.176 324.601L574.363 324.601C575.148 323.02 576.113 321.534 577.24 320.175 577.949 319.38 578.512 318.466 578.903 317.475 579.323 316.373 579.56 315.21 579.603 314.032L579.603 313.663C579.501 308.296 575.14 303.987 569.772 303.951Z" fill="#1D0893"/><path d="M608.005 332.3 601.105 320.3 601.105 319.8C601.711 303.204 588.748 289.259 572.151 288.653 555.555 288.048 541.611 301.011 541.005 317.607 540.978 318.338 540.978 319.069 541.005 319.8 540.966 329.262 545.326 338.204 552.805 344L552.805 369.3 584.405 369.3 584.405 357.3 589.305 357.3C595.822 357.301 601.106 352.019 601.107 345.502 601.107 345.435 601.106 345.367 601.105 345.3L601.105 339.3 605.505 339.3C608.105 339 610.405 336 608.005 332.3ZM569.772 337.558C568.097 337.56 566.703 336.273 566.572 334.603L572.965 334.603C572.834 336.27 571.444 337.556 569.772 337.558ZM574.178 332.558 565.366 332.558C564.551 332.537 563.908 331.859 563.929 331.044 563.949 330.259 564.581 329.627 565.366 329.607L574.178 329.607C574.993 329.628 575.636 330.306 575.615 331.121 575.595 331.906 574.963 332.538 574.178 332.558ZM582.558 314.084C582.511 315.599 582.21 317.095 581.668 318.51 581.15 319.846 580.397 321.079 579.445 322.15 578.261 323.649 577.256 325.281 576.451 327.013 576.285 327.347 575.943 327.559 575.57 327.559L563.97 327.559C563.597 327.559 563.256 327.347 563.09 327.013 562.283 325.281 561.276 323.649 560.09 322.15 559.138 321.079 558.385 319.846 557.867 318.51 557.326 317.095 557.025 315.599 556.977 314.084L556.977 313.642C557.103 306.654 562.782 301.043 569.771 301L569.771 301C576.756 301.046 582.431 306.655 582.558 313.639Z" fill="#1D0893"/></g></svg>