<svg width="96" height="96" xmlns="http://www.w3.org/2000/svg" xmlns:xlink="http://www.w3.org/1999/xlink" overflow="hidden"><defs><clipPath id="clip0"><rect x="324" y="283" width="96" height="96"/></clipPath></defs><g clip-path="url(#clip0)" transform="translate(-324 -283)"><path d="M414.6 319.3 409.4 317.4 409.4 306.5 414.6 304.3 379.4 291.3 336.6 306.3C332.5 308.3 332.4 313.8 332.4 318.3 332.4 319.8 332.6 321.3 332.9 322.7 329.5 324.9 329.4 330 329.4 334.3 329.4 337.8 330.2 341 332.4 343 331.9 344.7 332.2 346.8 332.2 349.3 332.2 353.8 333.4 357.9 337.4 359.3L365.2 370.8 414.4 350.4 409.2 348.5 409.2 337.5 414.4 335.3 406.4 332.3 406.4 322.7 414.6 319.3ZM337.8 313.3 365.6 324.2 405.5 308.1 405.5 316.7 365.6 333.3 337.8 322.3 337.8 313.3ZM405.3 347.8 365.4 364.3 337.5 353.3 337.5 345.5 362.4 355.7 405.4 338.7 405.3 347.8ZM402.5 332.8 362.6 349.3 334.8 338.3 334.8 329.3 363.4 340.7 402.6 324.3 402.6 332.8Z" fill="#1D0893"/></g></svg>