<svg width="20" height="20" xmlns="http://www.w3.org/2000/svg" xmlns:xlink="http://www.w3.org/1999/xlink" overflow="hidden"><defs><clipPath id="clip0"><rect x="592" y="312" width="20" height="20"/></clipPath></defs><g clip-path="url(#clip0)" transform="translate(-592 -312)"><path d="M611.086 320.271 602.001 317.021 592.917 320.271 594.708 320.9 594.708 324.521C594.708 324.636 594.802 324.729 594.917 324.729 595.032 324.729 595.125 324.636 595.125 324.521L595.125 321.046 596.591 321.56 596.591 324.56C596.591 325.781 599.069 326.812 602.001 326.812 604.934 326.812 607.411 325.781 607.411 324.561L607.411 321.56ZM602.001 317.464 609.833 320.265C609.836 320.266 609.836 320.268 609.833 320.269L602.001 323.017 594.17 320.269C594.167 320.268 594.167 320.266 594.17 320.265ZM606.995 324.561C606.995 325.409 604.814 326.396 602.001 326.396 599.189 326.396 597.008 325.409 597.008 324.561L597.008 321.707 602.001 323.458 606.995 321.706Z" fill="#1D0B93"/></g></svg>